<svg width="25" height="25" viewBox="0 0 25 25" fill="none" xmlns="http://www.w3.org/2000/svg">
<path d="M12.2961 0.386963C19.2237 0.386963 24.4682 6.06686 24.4682 12.5651C24.4682 20.1017 18.3212 24.78 12.2717 24.78C10.2715 24.78 8.05171 24.2425 6.27102 23.192C5.649 22.8134 5.12455 22.5324 4.45374 22.7523L1.99005 23.4852C1.36802 23.6806 0.806985 23.192 0.989933 22.5324L1.8071 19.7963C1.94126 19.4177 1.91687 19.0146 1.72172 18.697C0.672824 16.767 0.0751953 14.6539 0.0751953 12.6018C0.0751953 6.17679 5.20992 0.386963 12.2961 0.386963ZM17.8699 11.0505C17.0039 11.0505 16.3087 11.7467 16.3087 12.614C16.3087 13.469 17.0039 14.1775 17.8699 14.1775C18.7358 14.1775 19.431 13.469 19.431 12.614C19.431 11.7467 18.7358 11.0505 17.8699 11.0505ZM12.2473 11.0505C11.3935 11.0383 10.6862 11.7467 10.6862 12.6018C10.6862 13.469 11.3814 14.1653 12.2473 14.1775C13.1133 14.1775 13.8085 13.469 13.8085 12.614C13.8085 11.7467 13.1133 11.0505 12.2473 11.0505ZM6.62472 11.0505C5.75876 11.0505 5.06356 11.7467 5.06356 12.614C5.06356 13.469 5.77096 14.1775 6.62472 14.1775C7.49067 14.1653 8.18587 13.469 8.18587 12.614C8.18587 11.7467 7.49067 11.0505 6.62472 11.0505Z" fill="#5D7285"/>
</svg>
