<svg width="25" height="26" viewBox="0 0 25 26" fill="none" xmlns="http://www.w3.org/2000/svg">
<path d="M17.9617 0.769441C19.7162 0.659786 21.4463 1.26898 22.75 2.463C23.9441 3.76668 24.5533 5.49679 24.4558 7.26346V18.6432C24.5654 20.4099 23.9441 22.14 22.7622 23.4437C21.4585 24.6377 19.7162 25.2469 17.9617 25.1372H6.58187C4.81519 25.2469 3.08506 24.6377 1.78138 23.4437C0.587345 22.14 -0.0218551 20.4099 0.0878008 18.6432V7.26346C-0.0218551 5.49679 0.587345 3.76668 1.78138 2.463C3.08506 1.26898 4.81519 0.659786 6.58187 0.769441H17.9617ZM17.6449 6.33748C16.8895 5.58208 15.6711 5.58208 14.9157 6.33748L14.0994 7.16599C13.9776 7.28782 13.9776 7.49495 14.0994 7.61679C14.0994 7.61679 14.1233 7.64056 14.1659 7.68287L14.4656 7.98093C14.6389 8.15341 14.8553 8.36881 15.0726 8.58541L15.8094 9.32183C15.9631 9.47626 16.0651 9.57975 16.0732 9.59058C16.2072 9.73679 16.2925 9.93173 16.2925 10.151C16.2925 10.5897 15.9392 10.9552 15.4884 10.9552C15.2812 10.9552 15.0863 10.8699 14.9523 10.7359L12.9175 8.71334C12.8201 8.61587 12.6495 8.61587 12.552 8.71334L6.74026 14.5251C6.33819 14.9271 6.10669 15.4632 6.09451 16.0359L6.02141 18.9234C6.02141 19.0818 6.07014 19.228 6.1798 19.3377C6.28945 19.4474 6.43566 19.5083 6.59405 19.5083H9.45729C10.0421 19.5083 10.6026 19.2768 11.029 18.8625L19.2289 10.6384C19.9721 9.883 19.9721 8.66461 19.2289 7.92139L17.6449 6.33748Z" fill="#5D7285"/>
</svg>
