<svg width="25" height="25" viewBox="0 0 25 25" fill="none" xmlns="http://www.w3.org/2000/svg">
<path d="M17.5574 0.299805C21.6912 0.299805 24.4682 3.20027 24.4682 7.51613V17.4765C24.4682 21.7923 21.6912 24.6928 17.5562 24.6928H6.98595C2.85221 24.6928 0.0751953 21.7923 0.0751953 17.4765V7.51613C0.0751953 3.20027 2.85221 0.299805 6.98595 0.299805H17.5574ZM18.9024 13.1672C17.595 12.3516 16.5857 13.4969 16.3134 13.8632C16.0509 14.2169 15.8253 14.6071 15.5873 14.9973C15.006 15.9602 14.34 17.0703 13.1872 17.716C11.5118 18.6436 10.24 17.789 9.32507 17.1672C8.98167 16.9356 8.64807 16.7166 8.3157 16.5706C7.49643 16.2169 6.75934 16.6197 5.66534 18.0093C5.09136 18.7355 4.52229 19.4555 3.94586 20.1729C3.60122 20.6021 3.6834 21.2642 4.14822 21.5512C4.89022 22.0081 5.79535 22.2535 6.81821 22.2535H17.0971C17.6772 22.2535 18.2585 22.1742 18.8129 21.993C20.0614 21.5852 21.0524 20.6512 21.57 19.4177C22.0066 18.3806 22.2188 17.1219 21.8104 16.0747C21.6742 15.7273 21.4706 15.4038 21.1849 15.1194C20.4355 14.3755 19.7352 13.6807 18.9024 13.1672ZM8.00153 5.1784C6.32006 5.1784 4.9538 6.54652 4.9538 8.22753C4.9538 9.90854 6.32006 11.2767 8.00153 11.2767C9.68177 11.2767 11.0493 9.90854 11.0493 8.22753C11.0493 6.54652 9.68177 5.1784 8.00153 5.1784Z" fill="#5D7285"/>
</svg>
