<svg width="23" height="26" viewBox="0 0 23 26" fill="none" xmlns="http://www.w3.org/2000/svg">
<path d="M16.3831 0.843262C20.1506 0.843262 22.2484 3.01424 22.2484 6.73417V19.3332C22.2484 23.1141 20.1506 25.2363 16.3831 25.2363H6.16119C2.45346 25.2363 0.294678 23.1141 0.294678 19.3332V6.73417C0.294678 3.01424 2.45346 0.843262 6.16119 0.843262H16.3831ZM6.4905 17.6013C6.1246 17.5647 5.77091 17.7354 5.57576 18.0525C5.38062 18.3574 5.38062 18.7599 5.57576 19.077C5.77091 19.3819 6.1246 19.5649 6.4905 19.5161H16.0526C16.5392 19.4673 16.9063 19.0514 16.9063 18.5648C16.9063 18.0647 16.5392 17.65 16.0526 17.6013H6.4905ZM16.0526 12.0384H6.4905C5.96483 12.0384 5.53917 12.4665 5.53917 12.991C5.53917 13.5154 5.96483 13.9423 6.4905 13.9423H16.0526C16.577 13.9423 17.0039 13.5154 17.0039 12.991C17.0039 12.4665 16.577 12.0384 16.0526 12.0384ZM10.136 6.51463H6.4905V6.52683C5.96483 6.52683 5.53917 6.95371 5.53917 7.47816C5.53917 8.00261 5.96483 8.42948 6.4905 8.42948H10.136C10.6617 8.42948 11.0886 8.00261 11.0886 7.46474C11.0886 6.94151 10.6617 6.51463 10.136 6.51463Z" fill="#5D7285"/>
</svg>
