<svg width="18" height="16" viewBox="0 0 18 16" fill="none" xmlns="http://www.w3.org/2000/svg">
<path d="M5.06239 6.3125C4.44013 6.3125 3.93739 6.81523 3.93739 7.4375C3.93739 8.05977 4.44013 8.5625 5.06239 8.5625C5.68466 8.5625 6.18739 8.05977 6.18739 7.4375C6.18739 6.81523 5.68466 6.3125 5.06239 6.3125ZM8.99989 6.3125C8.37763 6.3125 7.87489 6.81523 7.87489 7.4375C7.87489 8.05977 8.37763 8.5625 8.99989 8.5625C9.62216 8.5625 10.1249 8.05977 10.1249 7.4375C10.1249 6.81523 9.62216 6.3125 8.99989 6.3125ZM12.9374 6.3125C12.3151 6.3125 11.8124 6.81523 11.8124 7.4375C11.8124 8.05977 12.3151 8.5625 12.9374 8.5625C13.5597 8.5625 14.0624 8.05977 14.0624 7.4375C14.0624 6.81523 13.5597 6.3125 12.9374 6.3125ZM8.99989 0.125C4.0288 0.125 -0.000108149 3.39805 -0.000108149 7.4375C-0.000108149 9.11094 0.699501 10.6437 1.85966 11.8777C1.33583 13.2629 0.245986 14.4371 0.228407 14.4512C-0.00362377 14.6973 -0.066905 15.0559 0.0666887 15.3652C0.200282 15.6746 0.506142 15.875 0.843642 15.875C3.00575 15.875 4.71083 14.9715 5.73388 14.2473C6.74989 14.5672 7.84677 14.75 8.99989 14.75C13.971 14.75 17.9999 11.477 17.9999 7.4375C17.9999 3.39805 13.971 0.125 8.99989 0.125ZM8.99989 13.0625C8.06122 13.0625 7.1331 12.9184 6.24364 12.6371L5.44559 12.384L4.76005 12.8691C4.25731 13.2242 3.56825 13.6215 2.73856 13.8887C2.9952 13.4633 3.24481 12.9852 3.43817 12.4754L3.81083 11.4875L3.08661 10.7211C2.45028 10.0426 1.68739 8.92109 1.68739 7.4375C1.68739 4.33672 4.96747 1.8125 8.99989 1.8125C13.0323 1.8125 16.3124 4.33672 16.3124 7.4375C16.3124 10.5383 13.0323 13.0625 8.99989 13.0625Z" fill="#6F6F70"/>
</svg>
